<?xml version="1.0" standalone="no"?>
<!DOCTYPE svg PUBLIC "-//W3C//DTD SVG 20010904//EN"
 "http://www.w3.org/TR/2001/REC-SVG-20010904/DTD/svg10.dtd">
<svg version="1.0" xmlns="http://www.w3.org/2000/svg"
 width="1310.000000pt" height="274.000000pt" viewBox="0 0 1310.000000 274.000000"
 preserveAspectRatio="xMidYMid meet">
<metadata>
Created by potrace 1.13, written by Peter Selinger 2001-2015
</metadata>
<g transform="translate(0.000000,274.000000) scale(0.100000,-0.100000)"
fill="#000000" stroke="none">
<path d="M6894 2069 c-22 -10 -49 -28 -60 -40 -18 -20 -19 -41 -19 -705 l0
-683 21 -22 c12 -12 40 -29 61 -39 35 -15 44 -16 78 -4 21 7 52 26 69 43 l30
31 0 675 0 674 -25 27 c-50 53 -100 67 -155 43z"/>
<path d="M7463 2079 c-82 -19 -123 -64 -123 -138 0 -52 11 -73 52 -103 29 -20
49 -24 148 -28 107 -5 119 -8 160 -36 130 -87 147 -246 38 -354 -54 -53 -74
-60 -187 -61 -94 0 -157 -23 -188 -69 -28 -40 -30 -94 -4 -135 10 -16 139
-148 287 -293 294 -288 323 -309 388 -287 79 27 116 93 95 168 -9 32 -83 110
-288 303 -57 54 -62 63 -52 82 6 11 20 24 32 27 21 7 124 87 147 114 32 39 62
92 86 152 36 91 37 236 3 325 -40 99 -78 151 -162 220 -63 51 -123 82 -189 96
-71 15 -209 24 -243 17z"/>
<path d="M11127 2071 c-21 -10 -49 -33 -63 -52 -22 -29 -25 -42 -21 -88 4 -61
-27 -25 342 -380 72 -68 320 -311 553 -540 319 -313 435 -420 468 -435 l45
-19 47 22 c60 28 92 73 92 130 0 56 10 45 -300 341 -112 107 -352 341 -533
520 -443 438 -486 478 -531 501 -47 23 -50 23 -99 0z"/>
<path d="M12399 2071 c-20 -9 -49 -31 -64 -49 l-27 -32 1 -297 c2 -281 3 -299
22 -330 22 -35 84 -73 119 -73 32 0 93 35 117 67 20 29 21 41 24 325 l4 295
-25 35 c-22 34 -95 79 -123 77 -6 0 -28 -8 -48 -18z"/>
<path d="M3580 2020 c-20 -5 -49 -24 -67 -44 -28 -30 -33 -43 -33 -85 0 -58
29 -100 90 -131 21 -11 68 -42 105 -70 37 -29 81 -54 100 -57 111 -18 183 54
164 162 -10 56 -93 130 -224 201 -51 27 -91 34 -135 24z"/>
<path d="M795 1992 c-86 -46 -108 -63 -195 -152 -84 -85 -102 -113 -189 -299
-23 -50 -23 -382 0 -432 94 -198 103 -212 188 -298 85 -86 130 -122 173 -142
13 -5 34 -16 48 -24 14 -8 50 -15 80 -14 62 0 96 21 124 76 39 77 5 134 -118
203 -148 83 -246 249 -246 415 0 91 43 218 95 283 37 46 108 108 155 134 87
49 130 99 130 150 0 24 -43 92 -72 112 -36 25 -114 20 -173 -12z"/>
<path d="M1319 1981 c-35 -35 -39 -44 -39 -89 0 -43 5 -57 31 -86 16 -19 39
-38 51 -42 20 -6 55 -28 116 -73 51 -39 117 -130 146 -202 22 -55 26 -81 26
-164 0 -83 -4 -109 -26 -164 -47 -117 -132 -211 -242 -266 -74 -37 -102 -75
-102 -137 0 -45 4 -54 39 -89 36 -36 43 -39 96 -39 58 0 73 6 170 69 120 77
201 170 269 308 116 235 99 495 -49 723 -100 155 -284 290 -396 290 -46 0 -55
-4 -90 -39z"/>
<path d="M2995 1992 c-86 -46 -108 -63 -195 -152 -91 -92 -147 -187 -189 -321
-30 -94 -30 -295 0 -388 65 -208 207 -383 382 -472 129 -65 247 -16 247 104 0
35 -50 117 -71 117 -25 0 -134 77 -180 128 -66 73 -104 150 -117 242 -32 221
72 408 292 520 37 19 76 81 76 120 0 35 -22 75 -59 107 -38 33 -120 30 -186
-5z"/>
<path d="M4940 1988 c-30 -16 -71 -42 -90 -56 -58 -44 -168 -160 -190 -200
-11 -20 -24 -44 -29 -52 -18 -28 -49 -105 -70 -171 -29 -92 -30 -279 -1 -362
11 -31 20 -65 20 -76 0 -10 6 -24 14 -30 8 -7 18 -26 21 -42 4 -16 11 -31 16
-35 5 -3 18 -22 29 -43 23 -47 155 -181 212 -218 95 -60 128 -73 185 -73 53 0
59 3 95 40 33 35 38 47 38 86 0 36 -7 54 -31 85 -17 21 -35 39 -41 39 -5 0
-37 17 -70 37 -78 48 -152 130 -191 212 -31 64 -32 70 -32 196 0 125 2 132 32
196 34 70 126 175 178 203 117 63 155 104 155 165 0 39 -30 92 -65 115 -40 27
-121 20 -185 -16z"/>
<path d="M5506 2008 c-55 -32 -87 -98 -71 -150 12 -37 52 -78 99 -102 107 -54
196 -148 241 -256 25 -58 27 -77 27 -180 0 -106 -3 -120 -31 -180 -49 -108
-123 -186 -227 -240 -92 -49 -109 -71 -109 -142 0 -56 2 -62 37 -94 33 -30 44
-34 92 -34 38 0 68 7 98 23 217 116 348 284 405 517 20 83 24 120 20 180 -11
147 -60 284 -146 410 -29 43 -169 180 -184 180 -6 0 -18 7 -27 15 -9 8 -37 26
-63 40 -52 27 -127 33 -161 13z"/>
<path d="M9195 1998 c-154 -79 -277 -206 -353 -363 -36 -73 -72 -229 -72 -310
0 -81 36 -237 72 -310 75 -155 201 -286 348 -360 119 -60 235 -7 235 107 0 40
-5 52 -34 82 -19 20 -44 39 -55 42 -21 7 -60 32 -110 72 -49 39 -106 114 -138
182 -28 60 -30 73 -31 180 0 103 3 122 28 180 43 103 120 189 220 245 137 77
161 164 68 245 -28 25 -42 30 -86 30 -32 -1 -67 -9 -92 -22z"/>
<path d="M9722 1995 c-40 -33 -66 -89 -57 -123 9 -37 52 -92 84 -106 69 -30
163 -106 204 -165 72 -104 81 -134 81 -276 0 -126 -1 -132 -32 -195 -18 -36
-50 -85 -71 -110 -39 -46 -141 -122 -179 -134 -11 -4 -34 -23 -51 -42 -56 -63
-53 -114 10 -177 38 -39 40 -39 101 -35 52 4 75 12 135 48 232 140 373 385
373 647 0 280 -157 528 -426 671 -59 31 -133 30 -172 -3z"/>
<path d="M11123 1342 c-17 -9 -42 -30 -55 -47 -23 -29 -23 -33 -26 -329 l-3
-299 25 -36 c16 -22 43 -43 71 -55 44 -18 46 -18 88 2 97 46 102 71 91 424
-10 308 -8 299 -86 339 -45 23 -64 23 -105 1z"/>
<path d="M3750 1013 c-8 -3 -35 -23 -60 -43 -25 -21 -71 -52 -102 -70 -82 -45
-108 -80 -108 -141 0 -44 5 -55 38 -90 35 -38 41 -41 93 -41 65 -1 144 37 237
112 78 64 93 87 94 148 0 83 -53 133 -141 131 -20 0 -43 -3 -51 -6z"/>
</g>
</svg>
